<svg xmlns="http://www.w3.org/2000/svg" width="24" height="24" viewBox="0 0 24 24" fill="none" stroke="#3A3A3F" stroke-width="1.5" stroke-linecap="round" stroke-linejoin="round">
  <path d="M15.707 21.293a1 1 0 0 1-1.414 0l-1.586-1.586a1 1 0 0 1 0-1.414l5.586-5.586a1 1 0 0 1 1.414 0l1.586 1.586a1 1 0 0 1 0 1.414z" fill="#FFFFFF"/>
  <path d="m18 13-1.375-6.874a1 1 0 0 0-.746-.776L3.235 2.028a1 1 0 0 0-1.207 1.207L5.35 15.879a1 1 0 0 0 .776.746L13 18" fill="#FFFFFF"/>
  <path d="m2.3 2.3 7.286 7.286"/>
  <circle cx="11" cy="11" r="2" fill="#FFFFFF"/>
  <!-- The "close path" badge: a small accent-filled ring at the nib's
       drawing tip (the same point the cursor's hotspot below sits at),
       the pen-with-small-circle variant specs/0002-path-node-editing/
       specification.md's "Cursors" names for hovering the in-progress
       path's own first node (acceptance criterion 5). -->
  <circle cx="2.3" cy="2.3" r="2.6" fill="none" stroke="#2F6FEE" stroke-width="1.5"/>
</svg>
